<?xml version="1.0" encoding="utf-8"?>
<!-- Generator: Adobe Illustrator 26.1.0, SVG Export Plug-In . SVG Version: 6.00 Build 0)  -->
<svg version="1.1" id="Layer_1" xmlns="http://www.w3.org/2000/svg" xmlns:xlink="http://www.w3.org/1999/xlink" x="0px" y="0px"
	 viewBox="0 0 274.7 274.7" style="enable-background:new 0 0 274.7 274.7;" xml:space="preserve">
<style type="text/css">
	.st0{fill:none;}
	.st1{enable-background:new    ;}
	.st2{fill:#FFFFFF;}
	.st3{fill:none;stroke:#FFFFFF;stroke-width:6;stroke-miterlimit:10;}
</style>
<rect x="-374.6" y="69.6" class="st0" width="1024" height="688.2"/>
<g class="st1">
	<path class="st2" d="M48.8,69.7v54c6.9-13.8,20.6-20,35.3-20c23.7,0,42.7,15.8,42.7,43.9c0,28.2-18.7,43.9-42.5,43.9
		c-14.4,0-28.4-7.2-35.4-20.1V190h-8.3V69.7H48.8z M49,147.4c0,21.2,14.8,35.8,34.7,35.8c19.1,0,34.7-12,34.7-35.6
		c0-23.9-15.7-35.8-34.7-35.8C64.1,111.8,49,126.2,49,147.4z"/>
	<path class="st2" d="M229.1,105.1c0,28.4,0,56.6,0,85h-8.4V172c-8.3,13.2-21,19.4-34.7,19.4c-23.7,0-43.2-17.9-43.2-43.9
		s19.4-43.5,43.2-43.5c13.8,0,27.7,6.4,34.7,19.6v-18.6H229.1z M151.2,147.6c0,21.3,15.5,35.6,34.7,35.6c47.3,0,47.3-71,0-71
		C166.6,112.1,151.2,126.2,151.2,147.6z"/>
</g>
<rect x="3" y="3" class="st3" width="268.7" height="268.7"/>
</svg>
